PathFileType	4	(X/Y/Z)	C:\Users\Basilio\Documents\Thesis Gigler\squatting_fais\c3dfiles\054\SLS_front_pre3\markers_experimental.trc
DataRate	CameraRate	NumFrames	NumMarkers	Units	OrigDataRate	OrigDataStartFrame	OrigNumFrames
200.000000	200.000000	4	61	mm	200.000000	1245	1423
Frame#	Time	FHD			LBHD			RBHD			C7			T10			CLAV			LSHO			LUUPA			LMUPA			LDUPA			LLEP			LMEP			LRAD			LUL			LRFIN			RSHO			RUPA1			RMUPA			RDUPA			RLEP			RMEP			RRAD			RUL			RUFIN			LASI			RASI			USACR			LSACR			RSACR			LTHI1			LTHI2			LTHI3			LTHI4			LLFC			LMFC			LTIB1			LTIB2			LTIB3			LTIB4			LLMAL			LMMAL			LHEE			LMT1			LMT2			LMT5			RTHI			RTHI2			RTHI3			RTHI4			RLFC			RMFC			RTIB1			RTIB2			RTIB3			RTIB4			RLMAL			RMMAL			RHEE			RMT1			RMT2			RMT5			
		X1	Y1	Z1	X2	Y2	Z2	X3	Y3	Z3	X4	Y4	Z4	X5	Y5	Z5	X6	Y6	Z6	X7	Y7	Z7	X8	Y8	Z8	X9	Y9	Z9	X10	Y10	Z10	X11	Y11	Z11	X12	Y12	Z12	X13	Y13	Z13	X14	Y14	Z14	X15	Y15	Z15	X16	Y16	Z16	X17	Y17	Z17	X18	Y18	Z18	X19	Y19	Z19	X20	Y20	Z20	X21	Y21	Z21	X22	Y22	Z22	X23	Y23	Z23	X24	Y24	Z24	X25	Y25	Z25	X26	Y26	Z26	X27	Y27	Z27	X28	Y28	Z28	X29	Y29	Z29	X30	Y30	Z30	X31	Y31	Z31	X32	Y32	Z32	X33	Y33	Z33	X34	Y34	Z34	X35	Y35	Z35	X36	Y36	Z36	X37	Y37	Z37	X38	Y38	Z38	X39	Y39	Z39	X40	Y40	Z40	X41	Y41	Z41	X42	Y42	Z42	X43	Y43	Z43	X44	Y44	Z44	X45	Y45	Z45	X46	Y46	Z46	X47	Y47	Z47	X48	Y48	Z48	X49	Y49	Z49	X50	Y50	Z50	X51	Y51	Z51	X52	Y52	Z52	X53	Y53	Z53	X54	Y54	Z54	X55	Y55	Z55	X56	Y56	Z56	X57	Y57	Z57	X58	Y58	Z58	X59	Y59	Z59	X60	Y60	Z60	X61	Y61	Z61	

1246	6.225000000000001	-44.01862335205079	1702.307006835938	-978.597595214844	-194.7863922119141	1742.508911132813	-1075.50146484375	-228.8074951171876	1766.069946289063	-940.8773193359377	-331.7996520996094	1586.733642578125	-998.049743652344	-398.5464477539064	1254.48193359375	-993.6970825195315	-197.7051086425782	1509.382568359375	-993.413024902344	-255.886459350586	1552.201416015625	-1165.104858398438	-314.5473632812501	1332.052001953125	-1280.094848632813	-271.3708190917969	1308.185668945313	-1269.761352539063	-310.5922241210938	1263.060180664063	-1283.387329101563	-300.6759643554688	1212.369750976563	-1280.947265625	-349.7448730468751	1197.27197265625	-1215.892578125	-243.3431396484376	955.0071411132815	-1258.344604492188	-287.5459899902344	949.915710449219	-1322.799682617188	-220.3791198730469	873.6292724609377	-1298.306274414063	-268.4001770019532	1562.709350585938	-831.0625610351565	-327.6490173339844	1352.553100585938	-702.0253295898439	-286.4281616210938	1327.614868164063	-699.9905395507814	-327.7511901855469	1283.71630859375	-689.5946655273439	-324.6211547851563	1240.4033203125	-685.3378906250001	-348.5336608886719	1217.901000976563	-757.6632080078126	-160.568603515625	1008.552307128906	-686.7379760742189	-227.7276611328126	994.8566894531252	-645.4791870117189	-127.6897964477539	947.8884887695315	-643.8127441406251	-221.2997131347657	1061.1533203125	-1088.652221679688	-239.3376770019532	1090.92138671875	-839.0560302734377	-410.4942932128907	1163.307373046875	-986.331237792969	-415.7554016113282	1129.858520507813	-1011.087646484375	-420.1072387695314	1133.811279296875	-954.7258300781252	-311.2558288574219	821.3572387695315	-1162.992431640625	-278.4723815917969	742.0538330078126	-1159.502807617188	-231.1992340087891	745.9568481445314	-1152.586059570313	-306.5516052246094	689.9840087890626	-1141.396850585938	-305.8540344238282	536.1035766601564	-1118.335327148438	-282.2231140136719	534.2465820312501	-981.1041259765627	-263.8579711914063	373.9735717773438	-1061.045532226563	-309.7294921875001	326.1958007812501	-1119.578369140625	-272.5127563476563	324.4685058593751	-1092.992065429688	-281.4961853027344	247.8601989746094	-1057.8642578125	-339.2022705078126	113.0588302612305	-1096.498168945313	-310.2686767578126	132.4549407958985	-1004.867248535156	-408.557342529297	104.4052429199219	-1038.113891601563	-198.0366821289063	55.70195388793947	-1017.421081542969	-189.6116485595703	55.06365966796876	-1066.767700195313	-242.368637084961	39.93106079101563	-1118.091430664063	-287.8899230957032	791.1614379882815	-733.4099731445314	-243.3774566650391	742.1651611328126	-726.8912353515626	-210.4765930175782	746.1804809570314	-731.7965698242189	-259.8439941406251	660.4826049804689	-734.8756103515626	-263.0624389648438	572.9671630859376	-726.2443237304689	-209.8695983886719	562.0828857421876	-854.5999145507815	-218.4486999511719	461.050262451172	-721.4418945312501	-297.8150939941407	399.279266357422	-684.7740478515626	-253.6234741210938	386.6330566406251	-692.1879882812501	-243.7319335937501	333.0004882812501	-711.6847534179689	-321.4724121093751	162.6609191894532	-676.1823730468751	-278.3131408691407	170.1567077636719	-762.2821044921876	-386.276092529297	150.9605102539063	-735.7319946289064	-181.7500305175782	61.90766525268556	-744.2012939453126	-178.9835510253907	63.30745697021486	-696.3048095703126	-232.9472656250001	57.11394119262697	-651.9960937500001	
1247	6.23	-42.83518981933594	1701.738525390625	-976.9107055664065	-193.8517761230469	1742.329833984375	-1073.765380859375	-227.8802032470704	1765.746337890625	-938.8804321289065	-330.9399108886719	1586.679443359375	-996.1277465820315	-398.2892456054689	1254.435791015625	-992.025329589844	-197.1614532470704	1509.184936523438	-991.8355102539065	-255.225814819336	1552.0986328125	-1163.306884765625	-313.4595947265626	1332.177612304688	-1278.912231445313	-270.6389160156251	1308.314819335938	-1268.427490234375	-309.1100463867188	1263.035278320313	-1282.117553710938	-299.4970397949219	1212.538696289063	-1279.7900390625	-348.3619384765626	1197.116088867188	-1214.599365234375	-240.8170623779297	955.3103027343752	-1257.456298828125	-285.3432617187501	950.0782470703127	-1321.773071289063	-217.3418273925782	874.061218261719	-1297.443359375	-267.4611511230469	1562.423583984375	-829.5015869140627	-326.7236328125001	1352.130615234375	-700.5484619140626	-285.8506164550782	1327.077514648438	-698.8061523437501	-326.9479370117188	1283.177612304688	-688.3967285156251	-324.2605895996094	1240.074951171875	-684.2936401367189	-348.5299072265626	1217.721435546875	-756.2728881835939	-162.0715942382813	1006.690185546875	-685.9561157226564	-229.3264312744141	993.6799926757815	-644.5148925781251	-129.5816040039063	946.0758056640627	-642.8926391601564	-221.2543487548829	1061.1572265625	-1087.496704101563	-239.1119232177735	1090.403564453125	-837.7404785156252	-410.3435974121095	1163.345947265625	-984.6790161132815	-415.9436340332032	1129.826049804688	-1009.625427246094	-420.4761962890626	1133.892211914063	-953.291442871094	-311.2392578125001	821.4844360351565	-1162.066284179688	-278.5360412597657	742.1785278320314	-1158.53955078125	-231.3930053710938	746.0881958007814	-1151.881958007813	-306.9398803710938	690.1641235351564	-1140.301147460938	-305.9327697753907	536.1290283203126	-1117.678588867188	-282.3000183105469	534.1731567382814	-980.5003051757815	-263.9391174316407	373.9622802734376	-1060.795043945313	-309.9148559570313	326.2709350585938	-1119.173828125	-272.5077209472657	324.5778808593751	-1092.70068359375	-281.5475463867188	247.9035797119141	-1057.729125976563	-339.1074829101563	113.0681991577149	-1096.467163085938	-310.3022155761719	132.4511108398438	-1004.862915039063	-408.557586669922	104.4264907836914	-1038.1103515625	-198.0973663330079	55.70909500122072	-1017.38916015625	-189.6122741699219	55.05565643310548	-1066.76708984375	-242.4541778564454	39.88298797607423	-1118.10888671875	-289.1598510742188	790.6772460937502	-732.6972045898439	-244.8494567871094	741.3024291992189	-726.1979980468751	-211.8076171875001	745.1857299804689	-730.8350830078126	-261.8571166992188	659.9393920898439	-734.3792724609376	-264.8339538574219	571.9923706054689	-725.8748779296876	-212.1590118408204	561.2428588867189	-854.1149902343752	-220.1428527832032	460.115447998047	-721.1474609375001	-299.3682556152344	398.125701904297	-684.3979492187501	-254.6385498046876	385.8527832031251	-691.9227905273439	-245.1178588867188	332.1680908203126	-711.2340698242189	-322.1388244628907	161.6146545410157	-675.8434448242189	-279.1934509277344	168.8477630615235	-761.9146728515626	-387.1138916015626	149.7337188720703	-735.2220458984376	-182.5641479492188	60.88843536376955	-744.0399780273439	-179.6668853759766	61.99425506591798	-696.2011108398439	-233.5359649658204	55.97692871093751	-651.8264160156251	
1248	6.235	-41.9924545288086	1701.171997070313	-975.443542480469	-194.9664459228516	1742.395751953125	-1071.984375	-226.5955657958985	1765.458374023438	-937.193786621094	-330.2953491210938	1586.6748046875	-994.310241699219	-398.0919799804689	1254.532592773438	-990.278747558594	-196.5536499023438	1508.979125976563	-990.3358154296877	-254.8612365722657	1552.118896484375	-1161.6689453125	-313.7104797363282	1332.32666015625	-1277.167724609375	-269.6812744140626	1308.212768554688	-1267.251831054688	-308.1333007812501	1263.135864257813	-1280.780029296875	-298.4299621582032	1212.70947265625	-1278.471923828125	-347.0063476562501	1196.916625976563	-1213.261962890625	-238.1033935546876	955.554382324219	-1256.650146484375	-282.9264526367188	950.3614501953127	-1320.7373046875	-214.4446868896485	874.5454711914065	-1296.4384765625	-266.5423889160157	1562.11279296875	-827.6772460937502	-325.7983093261719	1351.799072265625	-698.8823242187501	-284.8208312988282	1326.609985351563	-697.4968872070314	-326.2292175292969	1282.756958007813	-686.9189453125001	-323.7584838867188	1239.601684570313	-682.9772949218751	-347.9921264648438	1217.4580078125	-755.3887939453126	-163.2936096191407	1005.181335449219	-685.0985107421876	-230.4710998535157	992.713806152344	-643.2542724609376	-131.1394500732422	944.1343994140627	-642.1504516601564	-221.3109588623047	1061.108642578125	-1086.439453125	-238.4851226806641	1090.078979492188	-836.532653808594	-410.2317504882814	1163.474731445313	-982.9312744140627	-415.8471069335939	1129.835205078125	-1008.036682128906	-420.2615966796876	1133.918090820313	-951.6318969726565	-311.3848266601563	821.4925537109377	-1161.26708984375	-278.7050781250001	742.2871704101564	-1157.737060546875	-231.6242980957032	746.2355346679689	-1150.968383789063	-307.1399230957032	690.3397827148439	-1139.614013671875	-306.5523986816407	536.5478515625001	-1117.2275390625	-282.4857482910157	534.1251831054689	-979.9913330078127	-263.9082031250001	374.0328979492188	-1060.468017578125	-309.9456176757813	326.3501892089844	-1118.869262695313	-272.5298767089844	324.6019592285157	-1092.496337890625	-281.5471801757813	247.9535064697266	-1057.486450195313	-339.1225585937501	113.0670700073242	-1096.437377929688	-310.4342041015626	132.4703826904297	-1004.827758789063	-408.569793701172	104.4366302490235	-1038.132080078125	-198.0635375976563	55.72630310058595	-1017.422485351563	-189.6158142089844	55.05513000488283	-1066.773559570313	-242.4458923339844	39.90531158447266	-1118.13134765625	-289.8644714355469	789.9989013671877	-731.8439331054689	-246.0596923828126	740.5595703125001	-725.5316162109376	-213.1260833740235	744.1264648437501	-730.2051391601564	-263.4140014648438	659.0271606445314	-733.7459716796876	-267.0295410156251	571.2887573242189	-725.3171386718751	-214.794418334961	560.6802978515626	-853.566589355469	-221.9997100830079	459.2992248535157	-720.8854980468751	-300.8292236328126	397.1093750000001	-684.2724609375001	-256.4026794433594	384.711151123047	-691.6190795898439	-246.4472045898438	331.2246704101563	-711.1369018554689	-322.8913879394532	160.2595520019532	-675.5251464843751	-280.2453613281251	167.7809295654297	-761.7210693359376	-388.0288391113282	148.5147705078125	-734.8455200195314	-183.7293243408203	59.84059143066408	-743.8968505859376	-180.0469512939453	61.07607650756837	-696.0646362304689	-233.9077606201172	54.97042083740236	-651.5028076171876	
1249	6.24	-40.97254180908204	1700.540649414063	-973.5812988281252	-191.8828735351563	1741.780029296875	-1070.228271484375	-225.4549713134766	1765.255859375	-935.379333496094	-329.6626586914063	1586.59619140625	-992.5450439453127	-397.580047607422	1254.59228515625	-988.530944824219	-196.0386962890626	1508.751220703125	-988.6326293945315	-254.5609588623047	1552.125732421875	-1159.937622070313	-312.2343750000001	1332.329711914063	-1275.610229492188	-269.0303955078126	1308.522827148438	-1265.769653320313	-307.3031005859376	1263.330688476563	-1279.514526367188	-297.1688537597657	1212.662353515625	-1277.287963867188	-345.3020935058594	1196.759643554688	-1211.981811523438	-235.5865020751954	955.9258422851565	-1255.48046875	-280.4394836425782	950.5195922851565	-1319.506103515625	-211.5518188476563	875.124206542969	-1295.499633789063	-265.5001220703126	1561.791381835938	-825.9382324218752	-325.0433654785157	1351.476196289063	-697.2105712890626	-284.0629577636719	1326.211303710938	-696.1425781250001	-325.5815734863282	1282.422729492188	-685.3956298828126	-323.0559692382813	1239.076049804688	-681.8943481445314	-347.7237548828126	1217.363159179688	-753.9080810546876	-164.6581726074219	1003.487854003906	-684.1953125000001	-231.919906616211	991.7769775390627	-642.1920166015626	-133.0545043945313	942.185974121094	-641.5791625976564	-221.3709411621094	1061.134399414063	-1085.159423828125	-238.1999969482422	1089.637084960938	-835.0557250976565	-410.0144653320314	1163.404052734375	-981.352966308594	-415.5967712402345	1130.025146484375	-1006.2001953125	-419.9568786621095	1133.978515625	-949.9018554687502	-311.4334411621094	821.687927246094	-1160.119140625	-278.9545593261719	742.5147094726564	-1157.111450195313	-231.7379455566407	746.3466796875001	-1150.113647460938	-307.2955017089844	690.3294677734376	-1138.972900390625	-306.4735107421876	536.6859741210939	-1116.768188476563	-282.6219482421876	534.0634765625001	-979.3450317382815	-263.9079895019532	374.1115722656251	-1060.13427734375	-309.9726867675782	326.4418640136719	-1118.634521484375	-272.7147216796876	324.8124694824219	-1092.192260742188	-281.6379089355469	247.9954071044922	-1057.444702148438	-339.1448059082032	113.0823593139649	-1096.435668945313	-310.4664306640626	132.4798278808594	-1004.819213867188	-408.571502685547	104.460189819336	-1038.12841796875	-198.0252075195313	55.75547790527345	-1017.44287109375	-189.6212158203125	55.06646728515626	-1066.792114257813	-242.4628295898438	39.90499496459962	-1118.103393554688	-290.9639282226563	789.2985839843752	-730.8489990234376	-247.3946075439454	739.6105346679689	-724.9187622070314	-214.4409484863282	743.1190795898439	-729.6239013671876	-265.1879272460938	658.3450317382814	-733.3143920898439	-269.1329956054688	570.3504638671876	-724.8713989257814	-216.0216369628907	559.8834838867189	-853.3303833007815	-223.7770233154297	458.5610961914064	-720.4708862304689	-302.5776977539063	396.0104980468751	-683.8792724609376	-257.6249694824219	383.8397216796876	-691.4067382812501	-247.7778472900391	330.3184814453126	-710.7032470703126	-323.5913085937501	159.278060913086	-675.2677612304689	-281.0844116210938	166.716537475586	-761.6408691406251	-388.589324951172	146.9115905761719	-734.3309326171876	-183.7337799072266	59.22890472412111	-743.6944580078126	-180.4226379394532	60.37179946899415	-695.8037109375001	-234.2465820312501	53.94141006469728	-651.3504028320314	
